<svg id="visual" viewBox="0 0 900 600" width="900" height="600" xmlns="http://www.w3.org/2000/svg" xmlns:xlink="http://www.w3.org/1999/xlink" version="1.1"><path d="M0 397L21.5 394.2C43 391.3 86 385.7 128.8 385.7C171.7 385.7 214.3 391.3 257.2 391.8C300 392.3 343 387.7 385.8 392C428.7 396.3 471.3 409.7 514.2 406.8C557 404 600 385 642.8 376.2C685.7 367.3 728.3 368.7 771.2 380.2C814 391.7 857 413.3 878.5 424.2L900 435L900 601L878.5 601C857 601 814 601 771.2 601C728.3 601 685.7 601 642.8 601C600 601 557 601 514.2 601C471.3 601 428.7 601 385.8 601C343 601 300 601 257.2 601C214.3 601 171.7 601 128.8 601C86 601 43 601 21.5 601L0 601Z" fill="#2b3443"></path><path d="M0 463L21.5 463.5C43 464 86 465 128.8 459C171.7 453 214.3 440 257.2 439.2C300 438.3 343 449.7 385.8 451.2C428.7 452.7 471.3 444.3 514.2 445.8C557 447.3 600 458.7 642.8 464.7C685.7 470.7 728.3 471.3 771.2 465.7C814 460 857 448 878.5 442L900 436L900 601L878.5 601C857 601 814 601 771.2 601C728.3 601 685.7 601 642.8 601C600 601 557 601 514.2 601C471.3 601 428.7 601 385.8 601C343 601 300 601 257.2 601C214.3 601 171.7 601 128.8 601C86 601 43 601 21.5 601L0 601Z" fill="#252d3a"></path><path d="M0 486L21.5 480.2C43 474.3 86 462.7 128.8 456.3C171.7 450 214.3 449 257.2 450C300 451 343 454 385.8 455.2C428.7 456.3 471.3 455.7 514.2 463.5C557 471.3 600 487.7 642.8 494.2C685.7 500.7 728.3 497.3 771.2 495.3C814 493.3 857 492.7 878.5 492.3L900 492L900 601L878.5 601C857 601 814 601 771.2 601C728.3 601 685.7 601 642.8 601C600 601 557 601 514.2 601C471.3 601 428.7 601 385.8 601C343 601 300 601 257.2 601C214.3 601 171.7 601 128.8 601C86 601 43 601 21.5 601L0 601Z" fill="#1f2632"></path><path d="M0 504L21.5 508.8C43 513.7 86 523.3 128.8 527.8C171.7 532.3 214.3 531.7 257.2 525.8C300 520 343 509 385.8 507.3C428.7 505.7 471.3 513.3 514.2 517.8C557 522.3 600 523.7 642.8 519.5C685.7 515.3 728.3 505.7 771.2 507.5C814 509.3 857 522.7 878.5 529.3L900 536L900 601L878.5 601C857 601 814 601 771.2 601C728.3 601 685.7 601 642.8 601C600 601 557 601 514.2 601C471.3 601 428.7 601 385.8 601C343 601 300 601 257.2 601C214.3 601 171.7 601 128.8 601C86 601 43 601 21.5 601L0 601Z" fill="#191f2a"></path><path d="M0 550L21.5 546.5C43 543 86 536 128.8 532.3C171.7 528.7 214.3 528.3 257.2 534.8C300 541.3 343 554.7 385.8 557C428.7 559.3 471.3 550.7 514.2 551.7C557 552.7 600 563.3 642.8 560.5C685.7 557.7 728.3 541.3 771.2 539.2C814 537 857 549 878.5 555L900 561L900 601L878.5 601C857 601 814 601 771.2 601C728.3 601 685.7 601 642.8 601C600 601 557 601 514.2 601C471.3 601 428.7 601 385.8 601C343 601 300 601 257.2 601C214.3 601 171.7 601 128.8 601C86 601 43 601 21.5 601L0 601Z" fill="#141922"></path></svg>